<svg xmlns="http://www.w3.org/2000/svg" viewBox="0 0 48 48" width="48px" height="48px"><path fill="#29b6f6" d="M24,4C12.954,4,4,12.954,4,24s8.954,20,20,20s20-8.954,20-20S35.046,4,24,4z"></path><path fill="#fff" d="M34,15l-3.727,17.126c-0.244,1.129-0.882,1.411-1.83,0.884l-5.424-3.982l-2.618,2.522c-0.287,0.287-0.53,0.53-0.975,0.53c-0.444,0-0.596-0.148-0.814-0.366c-0.219-0.219-1.219-1.225-1.219-1.225L34,15z"></path><path fill="#cfd8dc" d="M24.893,25.322l-1.076,1.043c-0.287,0.287-0.53,0.53-0.975,0.53c-0.444,0-0.596-0.148-0.814-0.366c-0.219-0.219-1.22-1.225-1.22-1.225l3.114-1.826L24.893,25.322z"></path><path fill="#fff" d="M23.887,25.373l5.523-4.927c0.444-0.395-0.04-0.62-0.62-0.224l-6.845,4.316l-0.612,4.981C21.246,29.982,21.033,29.213,21.32,28.857L23.887,25.373z"></path></svg> 